<?xml version="1.0" standalone="no"?><!DOCTYPE svg PUBLIC "-//W3C//DTD SVG 1.1//EN" "http://www.w3.org/Graphics/SVG/1.1/DTD/svg11.dtd"><svg class="icon" width="200px" height="200.00px" viewBox="0 0 1024 1024" version="1.1" xmlns="http://www.w3.org/2000/svg"><path d="M131.11 192.37m32.17 0l700.08 0q32.17 0 32.17 32.17l0 0q0 32.17-32.17 32.17l-700.08 0q-32.17 0-32.17-32.17l0 0q0-32.17 32.17-32.17Z" fill="#303133" /><path d="M131.11 766.83m32.17 0l700.08 0q32.17 0 32.17 32.17l0 0q0 32.17-32.17 32.17l-700.08 0q-32.17 0-32.17-32.17l0 0q0-32.17 32.17-32.17Z" fill="#303133" /><path d="M449.33 385.09m32.17 0l381.87 0q32.17 0 32.17 32.17l0 0q0 32.17-32.17 32.17l-381.87 0q-32.17 0-32.17-32.17l0 0q0-32.17 32.17-32.17Z" fill="#303133" /><path d="M449.33 578.11m32.17 0l381.87 0q32.17 0 32.17 32.17l0 0q0 32.17-32.17 32.17l-381.87 0q-32.17 0-32.17-32.17l0 0q0-32.17 32.17-32.17Z" fill="#303133" /><path d="M321.3 512.16L130.08 384.62V639.7L321.3 512.16z" fill="#303133" /></svg>