<?xml version="1.0" encoding="UTF-8"?>
<svg width="16px" height="16px" viewBox="0 0 16 16" version="1.1" xmlns="http://www.w3.org/2000/svg"
    xmlns:xlink="http://www.w3.org/1999/xlink">
    <title></title>
    <g id="结算申请" stroke="none" stroke-width="1" fill="none" fill-rule="evenodd">
        <path
            d="M15.6995102,0 L0.300489798,0 C0.134539299,0 0,0.129323739 0,0.288840989 C0,0.44835824 0.134539299,0.577681979 0.300489798,0.577681979 L1.53438104,0.577681979 L1.53438104,10.2300931 C1.53438104,11.2387836 2.38811262,12.0594194 3.4374831,12.0594194 L6.70929615,12.0594194 L4.66620592,15.5700891 C4.58519387,15.7093104 4.63691818,15.8853109 4.78175426,15.9631824 C4.82647314,15.987327 4.87690252,16 4.92819295,16 C5.03346455,16 5.13565111,15.9466992 5.19070084,15.8521134 L7.39791861,12.0594001 L8.79884211,12.0594001 L11.0060599,15.8521134 C11.0611096,15.9466992 11.1632962,16 11.2685678,16 C11.3182287,16 11.3685708,15.9881383 11.4150065,15.9631824 C11.5598425,15.8853109 11.6115869,15.7093104 11.5305548,15.5700891 L9.48746457,12.0594194 L12.6956339,12.0594194 C13.7450044,12.0594194 14.5987359,11.2387836 14.5987359,10.2300931 L14.5987359,0.577681979 L15.6995102,0.577681979 C15.8654607,0.577681979 16,0.44835824 16,0.288840989 C16,0.129323739 15.8654607,0 15.6995102,0 Z M5.49782145,9.60438653 C5.49782145,9.76390378 5.36328215,9.89322752 5.19733165,9.89322752 C5.03138115,9.89322752 4.89684185,9.76390378 4.89684185,9.60438653 L4.89684185,6.74497627 C4.89684185,6.58545902 5.03138115,6.45613528 5.19733165,6.45613528 C5.36328215,6.45613528 5.49782145,6.58545902 5.49782145,6.74497627 L5.49782145,9.60438653 Z M8.30924407,9.60438653 C8.30924407,9.76390378 8.17470477,9.89322752 8.00875427,9.89322752 C7.84280377,9.89322752 7.70826447,9.76390378 7.70826447,9.60438653 L7.70826447,2.76592206 C7.70826447,2.60640481 7.84280377,2.47708107 8.00875427,2.47708107 C8.17470477,2.47708107 8.30924407,2.60640481 8.30924407,2.76592206 L8.30924407,9.60438653 Z M11.2035618,9.60438653 C11.2035618,9.76390378 11.0690225,9.89322752 10.903072,9.89322752 C10.7371215,9.89322752 10.6025822,9.76390378 10.6025822,9.60438653 L10.6025822,4.34491947 C10.6025822,4.18540222 10.7371215,4.05607848 10.903072,4.05607848 C11.0690225,4.05607848 11.2035618,4.18540222 11.2035618,4.34491947 L11.2035618,9.60438653 Z"
            id="形状" fill="currentColor" fill-rule="nonzero"></path>
    </g>
</svg>