<?xml version="1.0" encoding="UTF-8"?>
<svg width="16px" height="16px" viewBox="0 0 16 16" version="1.1" xmlns="http://www.w3.org/2000/svg" xmlns:xlink="http://www.w3.org/1999/xlink">
    <title></title>
    <g id="页面-1" stroke="none" stroke-width="1" fill="none" fill-rule="evenodd">
        <g id="投标管理-资质文件" transform="translate(-8.000000, -70.000000)" fill="currentColor" fill-rule="nonzero">
            <g id="侧边导航" transform="translate(0.000000, 50.000000)">
                <g id="首页-fill" transform="translate(8.000000, 20.000000)">
                    <path d="M15.7980608,6.3129572 L9.00879364,0.384263743 C8.42873262,-0.128087914 7.5200606,-0.128087914 6.94001619,0.384263743 L0.202178565,6.31613928 C-0.0292710825,6.51982931 -0.0664146562,6.89215101 0.113605428,7.1467358 C0.293625512,7.40132059 0.630808097,7.44588819 0.859400547,7.24538023 L1.0765642,7.05445552 L1.0765642,14.2242521 C1.0765642,15.2394277 2.02237979,16 2.86817684,16 L13.4978171,16 C14.3321854,16 14.8951032,15.2871589 14.8951032,14.2242521 L14.8951032,7.03534454 L15.1351411,7.24538023 C15.2322858,7.33131486 15.3465737,7.37266338 15.4637188,7.37266338 C15.6208979,7.37266338 15.7780438,7.29631199 15.8837768,7.1467358 C16.0694946,6.88896893 16.0266367,6.51662873 15.7980608,6.3129572 Z M9.58314027,13.5782347 L9.58314027,14.8129922 L6.39424154,14.8129922 L6.39424154,11.5001708 C6.39424154,10.8127864 6.89430102,10.0713065 7.98869091,10.0713065 C9.08593799,10.0713065 9.58314027,10.8128049 9.58314027,11.5001708 L9.58314027,13.5782347 Z" id="形状"></path>
                </g>
            </g>
        </g>
    </g>
</svg>