<?xml version="1.0" encoding="UTF-8"?>
<svg width="16px" height="16px" viewBox="0 0 16 16" version="1.1" xmlns="http://www.w3.org/2000/svg"
    xmlns:xlink="http://www.w3.org/1999/xlink">
    <title>home</title>
    <g id="页面-1" stroke="none" stroke-width="1" fill="none" fill-rule="evenodd">
        <g id=".企业端/TDL平台管理/合规推广/创建协议模版/结算标准/按服务项目配置备份-3"
            transform="translate(-1712.000000, -17.000000)" fill="currentColor" fill-rule="nonzero">
            <g id="编组-2" transform="translate(1712.000000, 15.000000)">
                <g id="home" transform="translate(0.000000, 2.000000)">
                    <rect id="矩形" opacity="0" x="0" y="0" width="16" height="16"></rect>
                    <path
                        d="M15.0783493,7.8898853 L8.78360316,1.70424192 L8.36167271,1.2894098 C8.16129647,1.09400626 7.83873961,1.09400626 7.63836337,1.2894098 L0.921686813,7.8898853 C0.721310578,8.08689051 0.613791622,8.34796246 0.615402455,8.62665276 C0.621936998,9.19044004 1.099256,9.64050886 1.67269043,9.64050886 L2.36504733,9.64050886 L2.36504733,14.8571429 L13.6349887,14.8571429 L13.6349887,9.64050886 L14.3420073,9.64050886 C14.6205792,9.64050886 14.8828603,9.53319708 15.0799783,9.3393952 C15.2770964,9.14559333 15.3846154,8.88772471 15.3846154,8.61383942 C15.3846154,8.34155579 15.2754674,8.08368717 15.0783493,7.8898853 Z M8.91231793,13.7039416 L7.08775383,13.7039416 L7.08775383,10.4365381 L8.91231793,10.4365381 L8.91231793,13.7039416 Z M12.4620725,8.48730761 L12.4620725,13.7039416 L9.95492598,13.7039416 L9.95492598,10.0521376 C9.95492598,9.69816893 9.66332154,9.41147028 9.30329595,9.41147028 L6.69677582,9.41147028 C6.33675022,9.41147028 6.04514578,9.69816893 6.04514578,10.0521376 L6.04514578,13.7039416 L3.53799923,13.7039416 L3.53799923,8.48730761 L1.97408715,8.48730761 L8.00166496,2.56593952 L8.3779813,2.93592492 L14.0276137,8.48730761 L12.4620725,8.48730761 Z"
                        id="形状"></path>
                </g>
            </g>
        </g>
    </g>
</svg>