<?xml version="1.0" encoding="UTF-8"?>
<svg width="16px" height="16px" viewBox="0 0 16 16" version="1.1" xmlns="http://www.w3.org/2000/svg" xmlns:xlink="http://www.w3.org/1999/xlink">
    <title></title>
    <g id="合规推广" stroke="none" stroke-width="1" fill="none" fill-rule="evenodd">
        <g id="合规推广-协议模板-创建协议模板" transform="translate(-8.000000, -543.000000)" fill-rule="nonzero">
            <g id="侧边导航" transform="translate(0.000000, 50.000000)">
                <g id="编组-5" transform="translate(0.000000, 473.000000)">
                    <g id="结算管理" transform="translate(8.000000, 20.000000)">
                        <path d="M8,16 C7.82221875,16 7.5555625,15.9111094 7.37778125,15.8222187 L4.4444375,13.6 L1.6,15.7333281 C1.2444375,16 0.888890625,16 0.533328125,15.8222344 C0.17778125,15.6444219 0,15.288875 0,14.9333125 L0,2.66667188 C0,1.1555625 1.1555625,0 2.66667188,0 L13.3333281,0 C14.8444375,0 16,1.1555625 16,2.66667188 L16,14.9333281 C16,15.2888906 15.8222187,15.6444375 15.4666719,15.8222344 C15.1111094,16 14.7555625,16 14.4,15.7333281 L11.5555625,13.6 L8.62221875,15.8222187 C8.4444375,15.911125 8.17778125,16 8,16 Z" id="路径" fill="currentColor"></path>
                        <path d="M12.4444531,6.22221875 C12.4444531,6.66666797 12,7.111125 11.5555625,7.111125 L8.88889063,7.111125 L8.88889063,8 L10.6666719,8 C11.1111094,8 11.5555625,8.4444375 11.5555625,8.88889063 C11.5555625,9.33334375 11.1111094,9.77778125 10.6666563,9.77778125 L8.88890625,9.77778125 L8.88890625,10.666668 C8.88890625,11.1111094 8.44445313,11.5555625 8.00001563,11.5555625 C7.55557813,11.5555625 7.111125,11.1111094 7.111125,10.6666563 L7.111125,9.77778125 L5.33332813,9.77778125 C4.88889063,9.77778125 4.4444375,9.33332813 4.4444375,8.888875 C4.4444375,8.44442188 4.88890625,8 5.33334375,8 L7.11109375,8 L7.11109375,7.11110938 L4.4444375,7.11110938 C4,7.11110938 3.5555625,6.7555625 3.5555625,6.22221875 C3.5555625,5.688875 4,5.33332813 4.4444375,5.33332813 L5.9555625,5.33332813 L4.88889063,4.17778125 C4.53332813,3.82221875 4.53332813,3.288875 4.88889063,2.93332813 C5.2444375,2.57778125 5.77778125,2.57778125 6.13332813,2.93332813 L8.08890625,4.88890625 L10.0444531,2.93334375 C10.4000156,2.57779688 10.9333594,2.57779688 11.2889063,2.93334375 C11.6444531,3.28890625 11.6444531,3.82225 11.2889063,4.17779688 L10.1333438,5.33334375 L11.5555781,5.33334375 C12.0000156,5.33334375 12.4444531,5.77779688 12.4444531,6.22225 L12.4444531,6.22221875 Z" id="路径" fill="#FFFFFF"></path>
                    </g>
                </g>
            </g>
        </g>
    </g>
</svg>