<?xml version="1.0" encoding="UTF-8"?>
<svg width="16px" height="16px" viewBox="0 0 16 16" version="1.1" xmlns="http://www.w3.org/2000/svg" xmlns:xlink="http://www.w3.org/1999/xlink">
    <title></title>
    <g id="合规推广" stroke="none" stroke-width="1" fill="none" fill-rule="evenodd">
        <g id="合规推广-协议模板-创建协议模板" transform="translate(-8.000000, -431.000000)" fill="currentColor" fill-rule="nonzero">
            <g id="侧边导航" transform="translate(0.000000, 50.000000)">
                <g id="编组-2" transform="translate(0.000000, 361.000000)">
                    <g id="准入" transform="translate(8.000000, 20.000000)">
                        <path d="M7.25254656,8.78882576 L12.1813035,5.82586279 L15.0083195,7.51900253 L15.0083195,4.44829545 L5.10640795,4.44829545 L5.10640795,15.6074916 L8.76222565,15.6074916 L7.25252633,14.7070707 L7.25252633,8.78880471 L7.25254656,8.78882576 Z M0,0.62337963 L0,14.9840909 C0,15.1494215 0.0631559542,15.3079805 0.175574274,15.4248869 C0.287992593,15.5417932 0.440464554,15.6074705 0.599448066,15.6074705 L3.90008524,15.6074705 L3.90008524,0 L0.599468302,0 C0.268402277,0 0,0.279096567 0,0.62337963 L0,0.62337963 Z M15.0083397,0.62337963 C15.0083397,0.279096567 14.7399374,0 14.4088714,0 L5.10640795,0 L5.10640795,3.18611111 L15.0083397,3.18611111 L15.0083397,0.62337963 Z M15.0083195,10.7128367 L12.736354,12.075021 L12.736354,16 L13.387606,15.6074916 L15.0083195,14.6377946 L16,14.037521 L16,10.1202441 L15.0083195,10.7128367 L15.0083195,10.7128367 Z" id="形状"></path>
                        <path d="M8.36262733,14.037521 L10.9824277,15.6074916 L11.6262733,16 L11.6262733,12.075 L8.36262733,10.1202231 L8.36262733,14.0375 L8.36262733,14.037521 Z M15.4449293,9.1197601 L15.0082992,8.85810185 L12.1812833,7.15728114 L8.91763736,9.1197601 L12.1812833,11.0745581 L15.0082992,9.38141835 L15.4449293,9.1197601 L15.4449293,9.1197601 Z" id="形状"></path>
                    </g>
                </g>
            </g>
        </g>
    </g>
</svg>