<?xml version="1.0" encoding="UTF-8"?>
<svg width="14px" height="17px" viewBox="0 0 14 17" version="1.1" xmlns="http://www.w3.org/2000/svg" xmlns:xlink="http://www.w3.org/1999/xlink">
    <title></title>
    <g id="合规推广" stroke="none" stroke-width="1" fill="none" fill-rule="evenodd">
        <g id="合规推广-协议模板-创建协议模板" transform="translate(-8.000000, -125.000000)">
            <g id="侧边导航" transform="translate(0.000000, 50.000000)">
                <g id="编组-3" transform="translate(0.000000, 56.000000)">
                    <g id="编组-5" transform="translate(8.000000, 19.461538)">
                        <g id="编组-4">
                            <rect id="Shape-3" fill="currentColor" fill-rule="nonzero" x="0" y="1.76923077" width="14" height="14.7692308" rx="1.23076923"></rect>
                            <rect id="矩形" fill="#FFFFFF" x="3.81818182" y="5.46153846" width="6" height="1.23076923" rx="0.615384615"></rect>
                            <rect id="矩形" fill="#FFFFFF" x="3.81818182" y="8.53846154" width="6" height="1.23076923" rx="0.615384615"></rect>
                            <rect id="矩形" fill="#FFFFFF" x="3.81818182" y="11.6153846" width="3" height="1.23076923" rx="0.615384615"></rect>
                            <rect id="Shape-3" stroke="#FFFFFF" stroke-width="0.615384615" fill="currentColor  " fill-rule="nonzero" x="3.38461538" y="0.307692308" width="7.09502262" height="2.38461538" rx="1.19230769"></rect>
                        </g>
                        <g id="138设置、系统设置、功能设置、属性" transform="translate(8.000000, 10.538462)" fill-rule="nonzero">
                            <rect id="矩形" fill="#323233" opacity="0" x="0" y="0" width="6" height="6"></rect>
                            <path d="M5.57636719,2.5125 C5.57519531,2.50195312 5.57402344,2.49316406 5.57226562,2.48789062 L5.57226562,2.48320312 L5.56992187,2.4703125 C5.52832031,2.26757812 5.39414062,2.13691406 5.22714844,2.13691406 L5.19960937,2.13691406 C4.91484375,2.13691406 4.68398437,1.90488281 4.68398437,1.62128906 C4.68398437,1.55566406 4.71445312,1.4625 4.72734375,1.4296875 C4.80820312,1.24101562 4.72207031,1.02597656 4.52226562,0.91640625 L3.89355469,0.560742187 L3.88183594,0.556640625 C3.83496094,0.54140625 3.78046875,0.523242187 3.71953125,0.523242187 C3.60585937,0.523242187 3.478125,0.575976562 3.39902344,0.655078125 C3.3,0.752929687 3.09902344,0.898828125 2.97949219,0.898828125 C2.86054687,0.898828125 2.65898437,0.753515625 2.55996094,0.655078125 C2.47558594,0.571875 2.35898437,0.523242187 2.23945312,0.523242187 C2.17675781,0.523242187 2.12402344,0.540820312 2.07714844,0.556640625 L2.06660156,0.560742187 L1.40742187,0.917578125 L1.40332031,0.919921875 C1.24335937,1.02011719 1.17832031,1.24980469 1.25976562,1.43203125 L1.2609375,1.434375 L1.26210937,1.43671875 C1.275,1.46542969 1.31484375,1.56269531 1.31484375,1.64765625 C1.31484375,1.93242187 1.0828125,2.16328125 0.79921875,2.16328125 L0.771679687,2.16328125 C0.597070312,2.16328125 0.46640625,2.2921875 0.42890625,2.49902344 L0.4265625,2.51074219 L0.4265625,2.51484375 C0.4265625,2.52070312 0.42421875,2.52890625 0.422460937,2.53945312 C0.4078125,2.62792969 0.37265625,2.83652344 0.37265625,3.00703125 C0.37265625,3.17753906 0.407226562,3.38613281 0.422460937,3.47460937 C0.423632812,3.48515625 0.424804687,3.49394531 0.4265625,3.49921875 L0.4265625,3.50390625 L0.42890625,3.51679687 C0.470507812,3.71953125 0.6046875,3.85019531 0.771679687,3.85019531 L0.785742187,3.85019531 C1.07050781,3.85019531 1.30136719,4.08222656 1.30136719,4.36582031 C1.30136719,4.43144531 1.27089844,4.52460937 1.25800781,4.55742187 C1.18007812,4.73496094 1.25390625,4.96289062 1.42617187,5.07773437 L1.43085937,5.08007812 L2.05195312,5.42578125 L2.06367187,5.42988281 C2.11054687,5.44511719 2.16386719,5.46328125 2.22480469,5.46328125 C2.35488281,5.46328125 2.47207031,5.41347656 2.5453125,5.33144531 C2.55234375,5.32617187 2.559375,5.31914062 2.56757812,5.31210937 C2.64257812,5.24648437 2.84414062,5.07304687 2.97714844,5.07304687 C3.07617187,5.07304687 3.24199219,5.17675781 3.40898437,5.34375 C3.49335937,5.42695312 3.60996094,5.47558594 3.72949219,5.47558594 C3.81035156,5.47558594 3.87011719,5.45332031 3.93808594,5.41992187 L3.94042969,5.41875 L4.57734375,5.06660156 L4.5796875,5.06425781 C4.73964844,4.9640625 4.8046875,4.734375 4.72324219,4.55214844 L4.72207031,4.54980469 L4.72089844,4.54746094 C4.71972656,4.546875 4.66992187,4.44316406 4.67929687,4.35 L4.68046875,4.34414062 L4.68046875,4.33828125 C4.68046875,4.05351562 4.9125,3.82265625 5.19609375,3.82265625 L5.22539062,3.82265625 C5.4,3.82265625 5.53066406,3.69375 5.56816406,3.48691406 L5.57050781,3.47519531 L5.57050781,3.47109375 C5.57167969,3.46640625 5.57285156,3.459375 5.57460937,3.45 C5.58984375,3.36386719 5.62502906,3.16289062 5.62502906,2.97890625 C5.62617187,2.80898437 5.59160156,2.60097656 5.57636719,2.5125 L5.57636719,2.5125 Z" id="路径" fill="#FFFFFF"></path>
                            <path d="M2.99824219,3.815625 C2.54765625,3.815625 2.18261719,3.45058594 2.18261719,3 C2.18261719,2.54941406 2.54765625,2.184375 2.99824219,2.184375 C3.44882812,2.184375 3.81386719,2.54941406 3.81386719,3 C3.81386719,3.45058594 3.44882812,3.815625 2.99824219,3.815625 L2.99824219,3.815625 Z" id="路径" stroke="#303133" stroke-width="0.75"></path>
                        </g>
                    </g>
                </g>
            </g>
        </g>
    </g>
</svg>