<?xml version="1.0" encoding="UTF-8"?>
<svg width="16px" height="16px" viewBox="0 0 16 16" version="1.1" xmlns="http://www.w3.org/2000/svg" xmlns:xlink="http://www.w3.org/1999/xlink">
    <title></title>
    <g id="合规推广" stroke="none" stroke-width="1" fill="none" fill-rule="evenodd">
        <g id="合规推广-协议模板-创建协议模板" transform="translate(-8.000000, -487.000000)" fill="currentColor" fill-rule="nonzero">
            <g id="侧边导航" transform="translate(0.000000, 50.000000)">
                <g id="编组-5" transform="translate(0.000000, 417.000000)">
                    <g id="营销" transform="translate(8.000000, 20.000000)">
                        <path d="M1.45453911,0 C0.651263763,0 0,0.716969984 0,1.60124513 L0,14.3987357 C0,15.28303 0.651281218,16 1.45453911,16 L14.5454434,16 C15.3487188,16 16,15.28303 16,14.3987357 L16,1.60126435 C16,0.716969984 15.3487188,0 14.5454434,0 L1.45453911,0 Z M12.5140144,6.56607925 L9.60491869,9.76622528 C9.3211777,10.0785846 8.86060478,10.0785846 8.57688124,9.76622528 L6.90908258,7.93159453 L4.51402309,10.5664539 C4.37215259,10.7226336 4.18606975,10.8008195 3.99998691,10.8008195 C3.81372952,10.8008195 3.62764668,10.7226336 3.48560164,10.5660504 C3.20168611,10.253326 3.20168611,9.74647224 3.48596819,9.43392075 L6.39506386,6.2333712 C6.67880484,5.92101186 7.13937777,5.92101186 7.42311876,6.2333712 L9.09089997,8.06800195 L11.4859769,5.43352684 C11.7700495,5.1211675 12.2306399,5.1211675 12.5143809,5.43391114 C12.798279,5.746674 12.7981219,6.25352776 12.5140144,6.56607925 Z" id="形状"></path>
                    </g>
                </g>
            </g>
        </g>
    </g>
</svg>