<?xml version="1.0" encoding="UTF-8"?>
<svg width="16px" height="16px" viewBox="0 0 16 16" version="1.1" xmlns="http://www.w3.org/2000/svg"
    xmlns:xlink="http://www.w3.org/1999/xlink">
    <title></title>
    <g id="结算申请" stroke="none" stroke-width="1" fill="none" fill-rule="evenodd">
        <path
            d="M14,0 C15.1045695,-2.02906125e-16 16,0.8954305 16,2 L16,6.85714286 C15.3688174,6.85714286 14.8571429,7.36881743 14.8571429,8 C14.8571429,8.63118257 15.3688174,9.14285714 16,9.14285714 L16,14 C16,15.1045695 15.1045695,16 14,16 L2,16 C0.8954305,16 1.3527075e-16,15.1045695 0,14 L0,9.14285714 C0.631182571,9.14285714 1.14285714,8.63118257 1.14285714,8 C1.14285714,7.36881743 0.631182571,6.85714286 0,6.85714286 L0,2 C-1.3527075e-16,0.8954305 0.8954305,2.02906125e-16 2,0 L14,0 Z M10.9285714,10.2857143 L5.07142857,10.2857143 C4.7952862,10.2857143 4.57142857,10.5095719 4.57142857,10.7857143 L4.57142857,10.9285714 C4.57142857,11.2047138 4.7952862,11.4285714 5.07142857,11.4285714 L10.9285714,11.4285714 C11.2047138,11.4285714 11.4285714,11.2047138 11.4285714,10.9285714 L11.4285714,10.7857143 C11.4285714,10.5095719 11.2047138,10.2857143 10.9285714,10.2857143 Z M10.9285714,4.57142857 L5.07142857,4.57142857 C4.7952862,4.57142857 4.57142857,4.7952862 4.57142857,5.07142857 L4.57142857,5.21428571 C4.57142857,5.49042809 4.7952862,5.71428571 5.07142857,5.71428571 L10.9285714,5.71428571 C11.2047138,5.71428571 11.4285714,5.49042809 11.4285714,5.21428571 L11.4285714,5.07142857 C11.4285714,4.7952862 11.2047138,4.57142857 10.9285714,4.57142857 Z"
            id="形状结合" fill="currentColor"></path>
    </g>
</svg>