<?xml version="1.0" encoding="UTF-8"?>
<svg width="17px" height="17px" viewBox="0 0 17 17" version="1.1" xmlns="http://www.w3.org/2000/svg"
    xmlns:xlink="http://www.w3.org/1999/xlink">
    <title>形状</title>
    <g id="1.9.3" stroke="none" stroke-width="1" fill="none" fill-rule="evenodd">
        <g id="推广管理-学术会议" transform="translate(-17.000000, -70.000000)" fill="currentColor"
            fill-rule="nonzero">
            <g id="编组-6" transform="translate(0.000000, 50.000000)">
                <g id="编组-12" transform="translate(17.809375, 17.000000)">
                    <g id="问卷调查" transform="translate(0.057297, 3.333328)">
                        <path
                            d="M0.930684621,15.9995385 C0.413264285,15.9940528 -0.00256644952,15.5716806 1.19258857e-05,15.0542377 L1.19258857e-05,0.945285237 C1.19258857e-05,0.425315858 0.418699388,0 0.930684621,0 L11.7356855,0 C12.2476863,0 12.6663461,0.425315858 12.6663461,0.945300861 L12.6663461,5.33317431 L15.0569334,5.33317431 C15.5449194,5.33317431 15.949564,5.70850723 15.9949064,6.18382165 L15.9995781,6.27449091 L15.9995781,15.0582376 C15.9995781,15.5762226 15.5755904,15.9995385 15.0569491,15.9995385 L0.930684621,15.9995385 Z M12.6663461,14.7442466 L14.7422863,14.7442466 L14.7422863,6.58848185 L12.6663461,6.58848185 L12.6663461,14.7448872 L12.6663461,14.7442466 Z M3.9999086,6.6664796 L1.99996628,6.6664796 C1.63330498,6.6664796 1.33331363,6.96647095 1.33331363,7.33311663 C1.33331363,7.6997623 1.63332061,7.99976927 1.99998191,7.99976927 L3.99992422,7.99976927 C4.36658552,7.99976927 4.66657687,7.69977793 4.66657687,7.33311663 C4.66657687,6.96645533 4.36658552,6.6664796 3.99992422,6.6664796 L3.9999086,6.6664796 Z M6.70183067,4.66653728 L1.96462355,4.66653728 C1.6179773,4.66653728 1.33331363,4.96652863 1.33331363,5.33317431 C1.33331363,5.69981998 1.61732107,5.99982696 1.9646548,5.99982696 L6.7018463,5.99982696 C7.04850817,5.99982696 7.33315621,5.69983561 7.33315621,5.33317431 C7.33315621,4.96651301 7.0491644,4.66653728 6.7018463,4.66653728 L6.70183067,4.66653728 Z M9.3577697,1.99994232 L1.97532637,1.99994232 C1.62199281,1.99994232 1.33332926,2.29993367 1.33332926,2.66659497 C1.33332926,3.03325627 1.62199281,3.33323199 1.97531074,3.33323199 L9.35775407,3.33323199 C9.71108763,3.33323199 9.99975118,3.03324064 9.99975118,2.66659497 C9.99975118,2.29994929 9.71108763,1.99994232 9.3577697,1.99994232 Z"
                            id="形状"></path>
                    </g>
                </g>
            </g>
        </g>
    </g>
</svg>