<svg t="1704725848631" class="icon" viewBox="0 0 1024 1024" version="1.1" xmlns="http://www.w3.org/2000/svg" p-id="1030" width="200" height="200"><path d="M294.7584 942.08a94.72 94.72 0 0 1-93.4912-108.9024l27.3408-179.2a33.3312 33.3312 0 0 0-9.216-28.3136L92.16 496.896a94.6176 94.6176 0 0 1 51.7632-159.8464L322.56 307.6608a33.3312 33.3312 0 0 0 24.1152-17.5104L430.08 129.0752a94.208 94.208 0 0 1 84.0192-51.2 94.3616 94.3616 0 0 1 84.0704 51.2l83.3024 161.0752a33.2288 33.2288 0 0 0 24.064 17.5104l178.8928 29.3888a94.6176 94.6176 0 0 1 51.968 159.8464L808.96 625.8176a33.28 33.28 0 0 0-9.1648 28.3136l27.2896 179.2A94.6176 94.6176 0 0 1 691.2 932.1984l-161.9968-81.408a33.3824 33.3824 0 0 0-29.7472 0l-162.048 81.408a94.6176 94.6176 0 0 1-42.6496 9.8816z m219.392-802.7136a32.5632 32.5632 0 0 0-29.44 17.92L401.4592 318.3616A95.1296 95.1296 0 0 1 332.8 368.2816l-178.944 29.3888a33.1776 33.1776 0 0 0-18.2272 56.32l127.488 128.9216a94.976 94.976 0 0 1 26.2144 80.7424l-27.2896 179.2a33.1264 33.1264 0 0 0 47.6672 34.6112l161.9968-81.3568a94.976 94.976 0 0 1 84.9408 0l161.9968 81.3568a33.1776 33.1776 0 0 0 47.6672-34.6112l-27.3408-179.2a95.1808 95.1808 0 0 1 26.2656-80.7424l127.4368-128.9216a33.1264 33.1264 0 0 0-18.2272-56.32l-178.8416-29.3888a95.0272 95.0272 0 0 1-68.7104-49.92l-83.2512-161.0752a32.7168 32.7168 0 0 0-29.4912-17.92z" fill="#57576D" p-id="1031"></path></svg>